<svg width="146" height="64" viewBox="0 0 146 64" fill="none" xmlns="http://www.w3.org/2000/svg">
<path d="M107.876 62.0207C107.454 62.0207 107.058 61.9295 106.69 61.7437C106.326 61.5579 106.005 61.3114 105.731 61.0006C105.457 60.6899 105.248 60.3386 105.096 59.9468C104.944 59.555 104.87 59.153 104.87 58.7342C104.87 58.3154 104.944 57.8864 105.096 57.4946C105.248 57.1028 105.457 56.7583 105.728 56.4543C105.998 56.1503 106.315 55.9139 106.68 55.7416C107.045 55.5693 107.444 55.4815 107.876 55.4815C108.501 55.4815 109.014 55.6133 109.419 55.8733C109.825 56.1334 110.132 56.4712 110.335 56.89L109.71 57.3257C109.521 56.9508 109.264 56.6705 108.936 56.4914C108.609 56.3091 108.251 56.2179 107.856 56.2179C107.528 56.2179 107.231 56.2888 106.967 56.4273C106.7 56.5658 106.474 56.7549 106.282 56.9947C106.089 57.2345 105.947 57.5047 105.846 57.8087C105.745 58.1127 105.697 58.4268 105.697 58.7511C105.697 59.0956 105.755 59.4233 105.866 59.7272C105.978 60.0346 106.136 60.3015 106.342 60.5345C106.548 60.7676 106.788 60.95 107.058 61.0851C107.332 61.2168 107.623 61.2844 107.94 61.2844C108.308 61.2844 108.659 61.1898 108.994 61.004C109.328 60.8149 109.642 60.5278 109.936 60.1427V60.9871C109.355 61.6762 108.67 62.0207 107.876 62.0207ZM109.838 59.376H108.45V58.7579H110.531V61.9734H109.842V59.376H109.838Z" fill="#252321"/>
<path d="M111.662 55.3464H112.463V60.7743C112.463 61.0344 112.5 61.1965 112.571 61.2573C112.642 61.3181 112.73 61.3485 112.834 61.3485C112.963 61.3485 113.081 61.335 113.199 61.308C113.314 61.281 113.412 61.2506 113.49 61.2202L113.618 61.8754C113.486 61.9295 113.327 61.9768 113.145 62.0106C112.963 62.0477 112.804 62.0646 112.665 62.0646C112.358 62.0646 112.111 61.9768 111.936 61.8011C111.76 61.6255 111.669 61.3789 111.669 61.0614V55.3464H111.662Z" fill="#252321"/>
<path d="M113.868 60.6122C113.868 60.3116 113.952 60.0515 114.128 59.832C114.304 59.6124 114.537 59.4435 114.841 59.3219C115.145 59.2003 115.496 59.1429 115.894 59.1429C116.107 59.1429 116.33 59.1598 116.567 59.1936C116.803 59.2274 117.012 59.278 117.191 59.3422V58.9977C117.191 58.6396 117.083 58.3593 116.864 58.1533C116.644 57.9472 116.337 57.8459 115.938 57.8459C115.678 57.8459 115.428 57.8932 115.189 57.9877C114.949 58.0823 114.695 58.2174 114.429 58.3931L114.138 57.829C114.445 57.6162 114.756 57.4575 115.064 57.3528C115.371 57.248 115.692 57.194 116.026 57.194C116.631 57.194 117.11 57.3595 117.462 57.6939C117.813 58.0283 117.989 58.491 117.989 59.0855V61.0749C117.989 61.1695 118.009 61.2404 118.046 61.2877C118.087 61.3316 118.151 61.3587 118.242 61.3654V61.9835C118.164 61.997 118.093 62.0038 118.036 62.0105C117.978 62.0173 117.931 62.0207 117.894 62.0207C117.705 62.0207 117.566 61.97 117.472 61.8653C117.377 61.764 117.327 61.6525 117.313 61.5377L117.296 61.2371C117.09 61.5039 116.82 61.7099 116.489 61.8552C116.155 62.0004 115.827 62.0713 115.499 62.0713C115.172 62.0713 114.905 62.0072 114.655 61.8788C114.408 61.7505 114.212 61.5748 114.074 61.3553C113.935 61.1357 113.864 60.8892 113.864 60.619L113.868 60.6122ZM116.955 60.9432C117.029 60.8588 117.087 60.7743 117.127 60.6865C117.171 60.5987 117.191 60.5278 117.191 60.467V59.8826C117.002 59.8117 116.806 59.7543 116.6 59.7171C116.394 59.68 116.192 59.6597 115.992 59.6597C115.587 59.6597 115.259 59.7408 115.006 59.8995C114.756 60.0583 114.628 60.2744 114.628 60.5514C114.628 60.7 114.668 60.8453 114.749 60.9871C114.83 61.129 114.952 61.2438 115.114 61.3316C115.276 61.4195 115.472 61.4667 115.709 61.4667C115.959 61.4667 116.192 61.4161 116.418 61.3181C116.644 61.2202 116.82 61.0952 116.955 60.9466V60.9432Z" fill="#252321"/>
<path d="M126.416 61.9734H125.615V59.3456C125.615 58.8524 125.534 58.491 125.376 58.258C125.213 58.0249 124.977 57.9067 124.663 57.9067C124.349 57.9067 124.051 58.0215 123.791 58.2546C123.531 58.4843 123.346 58.7849 123.237 59.1497V61.9768H122.437V59.3489C122.437 58.8524 122.359 58.4876 122.201 58.2546C122.042 58.0249 121.805 57.9067 121.491 57.9067C121.177 57.9067 120.887 58.0181 120.623 58.2445C120.36 58.4674 120.174 58.7646 120.066 59.1362V61.9734H119.265V57.2615H119.992V58.2782C120.184 57.9303 120.437 57.6601 120.745 57.471C121.052 57.2818 121.4 57.1872 121.788 57.1872C122.177 57.1872 122.498 57.2953 122.731 57.5081C122.967 57.7209 123.113 57.9979 123.167 58.3323C123.379 57.9607 123.636 57.677 123.937 57.4811C124.237 57.2852 124.585 57.1872 124.97 57.1872C125.244 57.1872 125.47 57.2379 125.656 57.3359C125.842 57.4338 125.987 57.5723 126.095 57.7513C126.203 57.9303 126.284 58.1364 126.331 58.3762C126.379 58.616 126.402 58.8794 126.402 59.1598V61.97L126.416 61.9734Z" fill="#252321"/>
<path d="M130.209 62.0646C129.821 62.0646 129.476 61.97 129.175 61.7775C128.875 61.585 128.635 61.3418 128.459 61.0479V63.9088H127.659V57.2615H128.368V58.1533C128.557 57.8662 128.801 57.6331 129.104 57.4541C129.408 57.2784 129.736 57.1872 130.094 57.1872C130.422 57.1872 130.722 57.2548 130.993 57.3865C131.266 57.5183 131.503 57.6973 131.702 57.927C131.901 58.1566 132.057 58.4167 132.168 58.7072C132.279 58.9977 132.337 59.305 132.337 59.6225C132.337 60.0684 132.249 60.4771 132.07 60.8486C131.891 61.2202 131.641 61.5174 131.32 61.737C130.999 61.9565 130.631 62.0646 130.212 62.0646H130.209ZM129.966 61.3755C130.202 61.3755 130.415 61.3249 130.608 61.2269C130.797 61.129 130.962 60.9972 131.097 60.8317C131.232 60.6662 131.337 60.4805 131.411 60.2711C131.482 60.0616 131.52 59.8455 131.52 59.6225C131.52 59.3895 131.479 59.1666 131.398 58.9571C131.317 58.7477 131.202 58.5619 131.053 58.3998C130.905 58.2377 130.733 58.1093 130.537 58.0181C130.341 57.927 130.128 57.8797 129.898 57.8797C129.753 57.8797 129.604 57.9067 129.449 57.9607C129.294 58.0148 129.148 58.0925 129.01 58.1904C128.871 58.2884 128.753 58.3998 128.655 58.5282C128.557 58.6531 128.493 58.7883 128.466 58.9301V60.2744C128.557 60.4771 128.679 60.6629 128.831 60.8317C128.983 61.0006 129.159 61.1324 129.358 61.2303C129.557 61.3283 129.763 61.3789 129.976 61.3789L129.966 61.3755Z" fill="#252321"/>
<path d="M133.316 56.3462V55.3464H134.117V56.3462H133.316ZM133.316 61.9734V57.2345H134.117V61.9734H133.316Z" fill="#252321"/>
<path d="M139.518 61.9734H138.717V59.3456C138.717 58.8491 138.64 58.4843 138.484 58.2512C138.329 58.0215 138.096 57.9033 137.782 57.9033C137.566 57.9033 137.346 57.9574 137.133 58.0654C136.917 58.1735 136.728 58.3188 136.562 58.5012C136.397 58.6835 136.275 58.8963 136.204 59.1328V61.97H135.404V57.2582H136.13V58.2749C136.258 58.0519 136.421 57.8594 136.62 57.6973C136.819 57.5351 137.045 57.4102 137.302 57.319C137.555 57.2278 137.822 57.1839 138.103 57.1839C138.383 57.1839 138.602 57.2345 138.788 57.3325C138.974 57.4304 139.119 57.5689 139.224 57.7479C139.329 57.927 139.406 58.133 139.45 58.3728C139.494 58.6126 139.518 58.8761 139.518 59.1564V61.9666V61.9734Z" fill="#252321"/>
<path d="M142.649 62.0646C142.328 62.0646 142.034 62.0004 141.764 61.8687C141.494 61.7403 141.264 61.5613 141.068 61.3316C140.876 61.1053 140.724 60.8453 140.619 60.5548C140.514 60.2643 140.46 59.9603 140.46 59.6462C140.46 59.3118 140.514 58.9977 140.619 58.7038C140.724 58.4066 140.876 58.1465 141.072 57.9168C141.267 57.6905 141.501 57.5115 141.767 57.3798C142.034 57.248 142.331 57.1839 142.656 57.1839C143.051 57.1839 143.392 57.2784 143.686 57.471C143.98 57.6635 144.226 57.9067 144.426 58.2005V57.2548H145.135V61.9194C145.135 62.3652 145.027 62.7435 144.814 63.0509C144.598 63.3582 144.307 63.5913 143.943 63.7534C143.578 63.9156 143.169 63.9932 142.72 63.9932C142.186 63.9932 141.75 63.8987 141.413 63.7129C141.075 63.5271 140.791 63.2704 140.568 62.9495L141.031 62.5408C141.22 62.8178 141.463 63.0272 141.761 63.1657C142.058 63.3042 142.379 63.3751 142.72 63.3751C143.01 63.3751 143.277 63.3245 143.524 63.2198C143.77 63.115 143.966 62.9597 144.115 62.7469C144.263 62.5341 144.338 62.2673 144.338 61.9498V61.1155C144.162 61.4059 143.922 61.6356 143.615 61.8045C143.308 61.9734 142.987 62.0578 142.649 62.0578V62.0646ZM142.895 61.4093C143.064 61.4093 143.23 61.3789 143.385 61.3181C143.544 61.2573 143.689 61.1763 143.821 61.0783C143.953 60.977 144.068 60.8655 144.155 60.7372C144.247 60.6088 144.307 60.4805 144.338 60.3454V58.9842C144.253 58.7646 144.132 58.5755 143.973 58.4066C143.814 58.2411 143.635 58.1093 143.436 58.0148C143.237 57.9202 143.031 57.8729 142.818 57.8729C142.575 57.8729 142.358 57.9236 142.169 58.0283C141.98 58.133 141.818 58.2681 141.683 58.4404C141.551 58.6126 141.446 58.8051 141.376 59.0179C141.305 59.2307 141.267 59.4435 141.267 59.6631C141.267 59.8995 141.308 60.1224 141.396 60.3318C141.48 60.5413 141.595 60.727 141.74 60.8892C141.886 61.0513 142.058 61.1796 142.257 61.2708C142.456 61.362 142.669 61.406 142.892 61.406L142.895 61.4093Z" fill="#252321"/>
<path d="M46.3416 48.7802C46.3821 47.1522 46.3618 45.7403 46.3044 44.1123L46.7705 44.0549C47.8953 47.7163 49.9489 49.3443 51.6344 49.3443C52.7389 49.3443 53.6475 48.6857 53.6475 47.5035C53.6475 44.6358 46.4395 44.3656 46.4395 39.6943C46.4395 37.4076 48.2398 35.8201 51.3979 35.8201C52.8706 35.8201 54.5155 36.2255 55.2721 36.6916C55.2316 37.9514 55.1742 39.2113 55.2147 40.4678L54.7486 40.5252C53.4516 37.3468 52.0735 36.3606 50.8339 36.3606C49.5943 36.3606 48.9559 37.1341 48.9559 38.1237C48.9559 41.4744 56.2212 41.65 56.2212 45.9126C56.2212 48.1216 54.5358 49.8442 51.0872 49.8442C49.2464 49.8442 47.0779 49.243 46.3416 48.7769V48.7802Z" fill="#252321"/>
<path d="M57.775 47.4258C57.775 45.6255 58.7038 44.6156 63.7433 43.0078C63.6656 40.6266 63.0644 40.0422 62.095 40.0422C61.183 40.0422 60.6629 40.4881 60.6629 41.1062C60.6629 41.5723 60.9736 41.8054 60.9736 42.464C60.9736 43.1801 60.4129 43.8184 59.5584 43.8184C58.8592 43.8184 58.2613 43.2578 58.2613 42.4032C58.2613 40.8731 60.315 39.5356 62.7739 39.5356C65.2328 39.5356 66.6109 40.505 66.6109 42.7714V46.9563C66.6109 47.9628 67.0568 48.4864 67.5229 48.4864C67.6985 48.4864 67.8336 48.429 68.0262 48.2939L68.2964 48.5641C67.908 49.2632 66.9791 49.7462 66.0097 49.7462C65.1383 49.7462 64.2871 49.1653 63.9189 48.2533C62.8921 49.3578 61.8079 49.8408 60.4703 49.8408C58.8828 49.8408 57.7783 48.6384 57.7783 47.419L57.775 47.4258ZM63.7805 47.794C63.7399 47.6183 63.723 47.4461 63.723 47.2502L63.7433 43.5685V43.4705C61.3215 44.244 60.6629 45.3316 60.6629 46.551C60.6629 47.6149 61.1864 48.3513 62.2132 48.3513C62.6962 48.3513 63.24 48.2364 63.7838 47.7906L63.7805 47.794Z" fill="#252321"/>
<path d="M68.9753 49.1889C69.8265 49.0538 70.4277 48.6451 70.4277 47.1556V43.3591C70.4277 42.5653 69.9616 42.1398 68.9753 42.0621V41.6567C70.2723 41.1737 71.5896 40.4374 72.89 39.4106L73.2379 39.6234V41.346C74.2647 40.2212 75.7948 39.5457 77.0918 39.5457C78.7199 39.5457 79.9021 40.7279 79.9021 42.4336V46.7739C79.9021 48.5168 80.4053 49.0606 81.3545 49.1957V49.6618C79.2806 49.6044 77.6356 49.6044 75.7543 49.6618V49.1957C76.4129 49.0606 77.0142 48.6519 77.0142 47.1623V43.0146C77.0142 41.5216 76.5109 40.8461 75.6394 40.8461C74.768 40.8461 73.9337 41.2345 73.3156 41.9101V46.7739C73.3156 48.5168 73.8189 49.0606 74.5755 49.1957V49.6618C72.6975 49.6044 71.0492 49.6044 68.9753 49.6618V49.1957V49.1889Z" fill="#252321"/>
<path d="M87.0695 49.1889C88.3091 49.0538 88.89 48.6451 88.9103 47.1556L89.0454 38.9783C89.0657 37.33 88.5016 36.6342 87.2046 36.5565V36.0903C88.5995 36.1309 90.768 36.1106 91.6023 36.0903L95.517 45.8349L99.2189 36.0903C100.634 36.1309 99.8776 36.1309 100.556 36.1309C101.583 36.1309 102.59 36.1309 103.85 36.0903V36.5565C102.61 36.6916 101.989 37.1003 102.009 38.5898L102.144 46.7672C102.164 48.4155 102.688 49.1112 103.985 49.1889V49.655C102.57 49.6179 101.485 49.6179 100.614 49.6179C99.5871 49.6179 98.5805 49.6179 97.3207 49.655V49.1889C98.5603 49.0538 99.1818 48.6451 99.1615 47.1556L99.0467 37.9346L94.6287 49.655H94.068L89.6128 38.6912L89.498 46.7705C89.4777 48.4188 90.0418 49.1146 91.1463 49.1923V49.6584C89.7513 49.6213 88.5117 49.6213 87.0762 49.6584V49.1923L87.0695 49.1889Z" fill="#252321"/>
<path d="M105.245 49.1889C106.096 49.0538 106.697 48.6451 106.697 47.1556V43.3591C106.697 42.5653 106.231 42.1398 105.245 42.0621V41.6567C106.542 41.1737 107.937 40.4374 109.237 39.4106L109.585 39.6234V46.7739C109.585 48.5168 110.088 49.0606 110.845 49.1957V49.6618C108.967 49.6044 107.319 49.6044 105.245 49.6618V49.1957V49.1889ZM106.292 36.9044C106.292 35.8573 106.971 35.2392 108.014 35.2392C109.004 35.2392 109.74 35.9181 109.74 36.9044C109.74 38.0089 108.926 38.5696 108.014 38.5696C106.988 38.5696 106.292 37.8535 106.292 36.9044Z" fill="#252321"/>
<path d="M111.331 50.9115C111.331 50.1178 111.757 49.574 113.074 49.091C112.26 48.7802 111.699 48.2567 111.699 47.3076C111.699 46.5341 112.068 46.0882 113.56 45.5073C112.321 44.9635 111.835 43.9772 111.835 42.7579C111.835 41.0724 113.54 39.5423 116.33 39.5423C118.151 39.5423 119.333 40.0084 119.954 40.684C120.38 39.8125 121.079 39.2518 121.91 39.2518C122.741 39.2518 123.383 39.7754 123.383 40.684C123.383 41.4 122.937 42.0013 122.18 42.0013C121.113 42.0013 121.191 41.0319 120.708 41.0319C120.552 41.0319 120.397 41.0893 120.242 41.1872C120.495 41.6331 120.65 42.1769 120.65 42.795C120.65 44.673 119.022 45.9531 116.155 45.9531C115.476 45.9531 114.895 45.8957 114.391 45.7775C114.138 45.9329 114.044 46.0477 114.044 46.2808C114.044 47.4224 121.599 46.2031 121.599 50.0975C121.599 51.7627 119.856 53.1205 116.232 53.1205C112.861 53.1205 111.331 52.114 111.331 50.9115ZM119.08 51.0298C119.08 49.5199 116.232 49.8104 114.081 49.324C113.733 49.6145 113.557 50.0401 113.557 50.6413C113.557 51.7458 114.776 52.6544 116.404 52.6544C118.127 52.6544 119.08 51.8404 119.08 51.0264V51.0298ZM117.742 43.3962C117.82 41.2649 117.239 40.0051 116.192 40.0051C115.435 40.0051 114.797 40.7211 114.739 42.0958C114.662 44.4197 115.435 45.487 116.31 45.487C117.067 45.487 117.705 44.673 117.742 43.3962Z" fill="#252321"/>
<path d="M124.835 46.9597V43.3557C124.835 42.5991 124.291 42.0587 123.383 42.0587V41.6534C124.68 41.1704 126.075 40.434 127.375 39.4072L127.723 39.62V46.3821C127.723 47.875 128.226 48.5506 129.098 48.5506C129.969 48.5506 130.648 48.1621 131.229 47.5035V43.3591C131.229 42.6025 130.685 42.0621 129.777 42.0621V41.6568C131.074 41.1737 132.469 40.4374 133.769 39.4106L134.117 39.6234V46.6354C134.117 47.7602 134.526 48.2837 135.569 48.5134V48.9187C134.019 48.9964 132.935 49.2666 131.655 49.8104L131.307 49.5976V48.0676C130.337 49.1721 128.922 49.851 127.645 49.851C126.369 49.851 124.835 49.27 124.835 46.9631V46.9597Z" fill="#252321"/>
<path d="M136.539 44.673C136.539 41.6703 138.555 39.539 141.19 39.539C143.824 39.539 145.452 41.167 145.317 43.9569C143.243 44.0549 141.365 44.1697 139.504 44.2677C139.697 46.8651 140.899 48.1047 142.912 48.1047C143.919 48.1047 144.733 47.7163 145.277 47.1184L145.51 47.2941C144.966 48.8039 143.301 49.851 141.423 49.851C138.633 49.851 136.542 47.5846 136.542 44.6798L136.539 44.673ZM142.716 43.5888C142.639 41.0319 141.96 40.0422 141.068 40.0422C140.062 40.0422 139.498 41.069 139.481 43.4706V43.7813C140.683 43.7239 141.69 43.6462 142.716 43.5888Z" fill="#252321"/>
<path d="M41.5892 16.8275L41.248 16.4864L41.5892 16.1452C47.8412 9.89318 57.9776 9.89318 64.2297 16.1452L64.5708 16.4864L64.2297 16.8275C57.9776 23.0796 47.8412 23.0796 41.5892 16.8275Z" fill="#F0E2CE"/>
<path d="M57.7378 0.479628C57.7378 9.32236 50.5704 16.4898 41.7277 16.4898H41.248V16.0101C41.248 7.16741 48.4155 0 57.2582 0H57.7378V0.479628Z" fill="#252321"/>
<path d="M20.624 16.4898H41.248V37.1138C41.248 48.5033 32.0135 57.7378 20.624 57.7378H0V37.1138C0 25.7243 9.23454 16.4898 20.624 16.4898Z" fill="#DF0814"/>
<path d="M20.624 25.4034C27.3219 25.4034 32.7498 30.8313 32.7498 37.5292C32.7498 44.2272 27.3219 49.6551 20.624 49.6551H8.4982V37.5292C8.4982 30.8313 13.9261 25.4034 20.624 25.4034Z" fill="#F18A0D"/>
<path d="M27.94 25.0927H32.7498V29.9025C32.7498 33.8847 29.5208 37.1172 25.5351 37.1172H20.7253V32.3074C20.7253 28.3251 23.9544 25.0927 27.94 25.0927Z" fill="#252321"/>
</svg>
